<svg width="26" height="26" xmlns="http://www.w3.org/2000/svg" xmlns:xlink="http://www.w3.org/1999/xlink" xml:space="preserve" overflow="hidden"><g transform="translate(-678 -36)"><path d="M686.396 44.3958 683.417 44.3958 683.417 42.5 686.396 42.5 686.396 44.3958ZM690.458 42.5 690.458 44.3958 687.479 44.3958 687.479 42.5 690.458 42.5ZM694.521 42.5 694.521 44.3958 691.542 44.3958 691.542 42.5 694.521 42.5ZM698.583 42.5 698.583 44.3958 695.604 44.3958 695.604 42.5 698.583 42.5ZM698.583 47.375 695.604 47.375 695.604 45.4792 698.583 45.4792 698.583 47.375ZM698.583 49.6771 695.604 49.9479 695.604 48.4583 698.583 48.4583 698.583 49.6771ZM686.396 48.4583 686.396 50.7604 683.417 51.0312 683.417 48.4583 686.396 48.4583ZM686.396 47.375 683.417 47.375 683.417 45.4792 686.396 45.4792 686.396 47.375ZM690.458 47.375 687.479 47.375 687.479 45.4792 690.458 45.4792 690.458 47.375ZM691.542 47.375 691.542 45.4792 694.521 45.4792 694.521 47.375 691.542 47.375ZM690.458 50.4083 687.479 50.6792 687.479 48.4583 690.458 48.4583 690.458 50.4083ZM691.542 48.4583 694.521 48.4583 694.521 50.0292 691.542 50.3 691.542 48.4583ZM700.208 51.1667 700.208 40.875 683.417 40.875 683.417 40.6042C683.417 39.25 682.333 38.1667 680.979 38.1667 680.519 38.1667 680.167 38.5187 680.167 38.9792 680.167 39.4396 680.519 39.7917 680.979 39.7917 681.44 39.7917 681.792 40.1437 681.792 40.6042L681.792 54.1458C681.792 55.5 682.875 56.5833 684.229 56.5833L685.042 56.5833 696.958 56.5833 699.396 56.5833C699.856 56.5833 700.208 56.2313 700.208 55.7708 700.208 55.3104 699.856 54.9583 699.396 54.9583L684.229 54.9583C683.769 54.9583 683.417 54.6063 683.417 54.1458L683.417 52.6562 700.208 51.1667Z"/><path d="M686.667 58.2083C686.667 59.1058 685.939 59.8333 685.042 59.8333 684.144 59.8333 683.417 59.1058 683.417 58.2083 683.417 57.3109 684.144 56.5833 685.042 56.5833 685.939 56.5833 686.667 57.3109 686.667 58.2083Z"/><path d="M698.583 58.2083C698.583 59.1058 697.856 59.8333 696.958 59.8333 696.061 59.8333 695.333 59.1058 695.333 58.2083 695.333 57.3109 696.061 56.5833 696.958 56.5833 697.856 56.5833 698.583 57.3109 698.583 58.2083Z"/></g></svg>